<svg width="27" height="21" viewBox="0 0 27 21" fill="none" xmlns="http://www.w3.org/2000/svg">
<path d="M9.04477 7.82721H5.82089V3.19805H3.67163V7.82721H0.447754V10.9133H3.67163V15.5425H5.82089V10.9133H9.04477V7.82721ZM19.791 9.37026C21.5749 9.37026 23.0042 7.30257 23.0042 4.7411C23.0042 2.17963 21.5749 0.111938 19.791 0.111938C19.4472 0.111938 19.114 0.189091 18.8131 0.327966C19.4257 1.57784 19.7803 3.09003 19.7803 4.7411C19.7803 6.39217 19.4149 7.88893 18.8131 9.15423C19.114 9.29311 19.4472 9.37026 19.791 9.37026ZM14.4179 9.37026C16.2018 9.37026 17.631 7.30257 17.631 4.7411C17.631 2.17963 16.2018 0.111938 14.4179 0.111938C12.634 0.111938 11.194 2.17963 11.194 4.7411C11.194 7.30257 12.634 9.37026 14.4179 9.37026ZM21.5319 12.7033C22.4239 13.8297 23.0149 15.2647 23.0149 17.0855V20.1716H26.2388V17.0855C26.2388 14.7092 23.6919 13.2433 21.5319 12.7033ZM14.4179 12.4564C12.2686 12.4564 7.97014 13.9994 7.97014 17.0855V20.1716H20.8657V17.0855C20.8657 13.9994 16.5672 12.4564 14.4179 12.4564Z" fill="#888888"/>
</svg>
