<svg width="79" height="79" viewBox="0 0 79 79" fill="none" xmlns="http://www.w3.org/2000/svg">
<ellipse cx="39.9115" cy="39.19" rx="39.0589" ry="39.19" fill="#EB4559"/>
<path d="M41.5 35.125C37.8333 35.125 34.2813 35.6563 30.9583 36.655V43.2425C30.9583 44.0712 30.4313 44.815 29.675 45.155C27.4292 46.1963 25.3896 47.535 23.5792 49.0863C23.1667 49.4688 22.5938 49.6813 21.975 49.6813C21.3333 49.6813 20.7604 49.4475 20.3479 49.065L14.6646 43.795C14.2521 43.4338 14 42.9025 14 42.3075C14 41.7125 14.2521 41.1813 14.6646 40.7987C21.6542 34.6575 31.0958 30.875 41.5 30.875C51.9042 30.875 61.3458 34.6575 68.3354 40.7987C68.7479 41.1813 69 41.7125 69 42.3075C69 42.9025 68.7479 43.4338 68.3354 43.8162L62.6521 49.0863C62.2396 49.4688 61.6667 49.7025 61.025 49.7025C60.4063 49.7025 59.8333 49.4688 59.4208 49.1075C57.6104 47.535 55.5479 46.2175 53.3021 45.1762C52.5458 44.8362 52.0188 44.1137 52.0188 43.2638V36.6762C48.7188 35.6562 45.1667 35.125 41.5 35.125Z" fill="#F8EEEE"/>
</svg>
