<svg width="28" height="26" viewBox="0 0 28 26" fill="none" xmlns="http://www.w3.org/2000/svg">
<path d="M0 7C0 9.76142 2.23858 12 5 12H7.72727C10.4887 12 12.7273 9.76142 12.7273 7V5C12.7273 2.23858 10.4887 0 7.72727 0H5C2.23858 0 0 2.23858 0 5V7ZM0 21C0 23.7614 2.23858 26 5 26H7.72727C10.4887 26 12.7273 23.7614 12.7273 21V19C12.7273 16.2386 10.4887 14 7.72727 14H5C2.23858 14 0 16.2386 0 19V21ZM15.2727 21C15.2727 23.7614 17.5113 26 20.2727 26H23C25.7614 26 28 23.7614 28 21V19C28 16.2386 25.7614 14 23 14H20.2727C17.5113 14 15.2727 16.2386 15.2727 19V21ZM15.2727 7C15.2727 9.76142 17.5113 12 20.2727 12H23C25.7614 12 28 9.76142 28 7V5C28 2.23858 25.7614 0 23 0H20.2727C17.5113 0 15.2727 2.23858 15.2727 5V7Z" fill="#F8EEEE" fill-opacity="0.9"/>
</svg>
