<svg width="55" height="55" viewBox="0 0 55 55" fill="none" xmlns="http://www.w3.org/2000/svg">
<ellipse cx="27.1875" cy="27.19" rx="27.1875" ry="27.19" fill="#F8EEEE"/>
<path d="M40 18.3333V37.6667C40 40.6 37.5455 43 34.5455 43H24.5909C23.1182 43 21.7273 42.4267 20.7045 41.4133L10 30.7733C10 30.7733 11.7182 29.1333 11.7727 29.1067C12.0727 28.8533 12.4409 28.72 12.85 28.72C13.15 28.72 13.4227 28.8 13.6682 28.9333C13.7227 28.9467 19.5455 32.2133 19.5455 32.2133V16.3333C19.5455 15.2267 20.4591 14.3333 21.5909 14.3333C22.7227 14.3333 23.6364 15.2267 23.6364 16.3333V25.6667H25V13C25 11.8933 25.9136 11 27.0455 11C28.1773 11 29.0909 11.8933 29.0909 13V25.6667H30.4545V14.3333C30.4545 13.2267 31.3682 12.3333 32.5 12.3333C33.6318 12.3333 34.5455 13.2267 34.5455 14.3333V25.6667H35.9091V18.3333C35.9091 17.2267 36.8227 16.3333 37.9545 16.3333C39.0864 16.3333 40 17.2267 40 18.3333Z" fill="#EB4559"/>
</svg>
