<svg width="55" height="55" viewBox="0 0 55 55" fill="none" xmlns="http://www.w3.org/2000/svg">
<ellipse cx="27.1875" cy="27.19" rx="27.1875" ry="27.19" fill="#F8EEEE"/>
<path d="M27 31.4195C29.2133 31.4195 30.9867 29.8002 30.9867 27.7942L31 20.5435C31 18.5375 29.2133 16.9182 27 16.9182C24.7867 16.9182 23 18.5375 23 20.5435V27.7942C23 29.8002 24.7867 31.4195 27 31.4195ZM25.4 20.4227C25.4 19.6251 26.12 18.9726 27 18.9726C27.88 18.9726 28.6 19.6251 28.6 20.4227L28.5867 27.9151C28.5867 28.7126 27.88 29.3652 27 29.3652C26.12 29.3652 25.4 28.7126 25.4 27.9151V20.4227ZM34.0667 27.7942C34.0667 31.4195 30.68 33.9573 27 33.9573C23.32 33.9573 19.9333 31.4195 19.9333 27.7942H17.6667C17.6667 31.915 21.2933 35.3228 25.6667 35.915V39.8787H28.3333V35.915C32.7067 35.3349 36.3333 31.9271 36.3333 27.7942H34.0667Z" fill="#EB4559"/>
</svg>
