<svg width="55" height="55" viewBox="0 0 55 55" fill="none" xmlns="http://www.w3.org/2000/svg">
<ellipse cx="27.1875" cy="27.19" rx="27.1875" ry="27.19" fill="#EB4559"/>
<path d="M36.5556 27.8596H34.4778C34.4778 28.7421 34.2822 29.5649 33.9522 30.3043L35.4556 31.7711C36.14 30.6024 36.5556 29.2787 36.5556 27.8596V27.8596ZM31.6422 28.0623C31.6422 27.9908 31.6667 27.9311 31.6667 27.8596V20.7043C31.6667 18.7247 30.0289 17.1267 28 17.1267C25.9711 17.1267 24.3333 18.7247 24.3333 20.7043V20.919L31.6422 28.0623ZM18.5522 18.3192L17 19.8338L24.3456 27.0009V27.8596C24.3456 29.8392 25.9711 31.4372 28 31.4372C28.2689 31.4372 28.5378 31.4014 28.7944 31.3418L30.8233 33.3214C29.9556 33.715 28.99 33.9415 28 33.9415C24.6267 33.9415 21.5222 31.4372 21.5222 27.8596H19.4444C19.4444 31.9261 22.7689 35.2891 26.7778 35.8735V39.785H29.2222V35.8735C30.3344 35.7184 31.3856 35.3368 32.3267 34.8002L37.4478 39.785L39 38.2705L18.5522 18.3192Z" fill="#F8EEEE"/>
</svg>
