<svg width="55" height="55" viewBox="0 0 55 55" fill="none" xmlns="http://www.w3.org/2000/svg">
<ellipse cx="27.1875" cy="27.19" rx="27.1875" ry="27.19" fill="#EB4559"/>
<path d="M38.525 35.525L41.025 38.025H42V35.525H38.525ZM39.4875 33.025L39.5 20.525C39.5 19.1375 38.375 18.025 37 18.025H21.025L27.5625 24.5625C27.7875 24.5125 28.0125 24.475 28.25 24.4375V21.775L33.25 26.4375L31.275 28.275L38.2 35.2C38.9625 34.7875 39.4875 33.9625 39.4875 33.025V33.025ZM14.9875 15.1625L13.3875 16.75L15.3125 18.675C14.8125 19.125 14.5 19.7875 14.5 20.525V33.025C14.5 34.4 15.6125 35.525 17 35.525H12V38.025H34.6625L38.05 41.4125L39.6375 39.825L14.9875 15.1625ZM20.75 31.775C21.1375 29.925 21.9 28.0875 23.3375 26.7L25.325 28.6875C23.4 29.1625 21.95 30.1625 20.75 31.775V31.775Z" fill="#F8EEEE"/>
</svg>
