<svg width="77" height="74" viewBox="0 0 77 74" fill="none" xmlns="http://www.w3.org/2000/svg">
<ellipse cx="38.3926" cy="37.0315" rx="38.2276" ry="36.6607" fill="#F8EEEE"/>
<path d="M52.1896 48.236C54.123 48.236 55.6872 46.7192 55.6872 44.8652L55.7048 28.0113C55.7048 26.1405 54.123 24.6405 52.1896 24.6405H24.0682C22.1173 24.6405 20.553 26.1405 20.553 28.0113V44.8652C20.553 46.7192 22.1173 48.236 24.0682 48.236H17.0378V51.6068H59.22V48.236H52.1896ZM39.8865 42.2866V38.5956C35.0004 38.5956 31.784 40.0281 29.341 43.1798C30.3252 38.6798 33.0495 34.1967 39.8865 33.2866V29.6967L46.9169 35.9832L39.8865 42.2866Z" fill="#EB4559"/>
</svg>
