<svg width="77" height="74" viewBox="0 0 77 74" fill="none" xmlns="http://www.w3.org/2000/svg">
<ellipse cx="38.3926" cy="37.0315" rx="38.2276" ry="36.6607" fill="#EB4559"/>
<path d="M54.3339 48.2698L57.8491 51.6405H59.22V48.2698H54.3339ZM55.6872 44.899L55.7048 28.045C55.7048 26.1742 54.123 24.6742 52.1896 24.6742H29.7276L38.9198 33.4889C39.2362 33.4214 39.5526 33.3709 39.8865 33.3203V29.7304L46.9169 36.0169L44.1399 38.4945L53.8769 47.8316C54.9491 47.2754 55.6872 46.163 55.6872 44.899V44.899ZM21.2385 20.8147L18.9888 22.9551L21.6955 25.5507C20.9924 26.1574 20.553 27.0507 20.553 28.045V44.899C20.553 46.7529 22.1173 48.2698 24.0682 48.2698H17.0378V51.6405H48.9029L53.666 56.208L55.8982 54.0675L21.2385 20.8147ZM29.341 43.2136C29.8858 40.7192 30.958 38.2417 32.9792 36.3709L35.7738 39.0507C33.0671 39.6911 31.0283 41.0394 29.341 43.2136V43.2136Z" fill="#F8EEEE"/>
</svg>
