<svg width="55" height="55" viewBox="0 0 55 55" fill="none" xmlns="http://www.w3.org/2000/svg">
<ellipse cx="27.1875" cy="27.19" rx="27.1875" ry="27.19" fill="#F8EEEE"/>
<path d="M37 35.5C38.375 35.5 39.4875 34.375 39.4875 33L39.5 20.5C39.5 19.1125 38.375 18 37 18H17C15.6125 18 14.5 19.1125 14.5 20.5V33C14.5 34.375 15.6125 35.5 17 35.5H12V38H42V35.5H37ZM28.25 31.0875V28.35C24.775 28.35 22.4875 29.4125 20.75 31.75C21.45 28.4125 23.3875 25.0875 28.25 24.4125V21.75L33.25 26.4125L28.25 31.0875Z" fill="#EB4559"/>
<path d="M0 0V-1H-1V0H0ZM54.375 0H55.375V-1H54.375V0ZM54.375 54.38V55.38H55.375V54.38H54.375ZM0 54.38H-1V55.38H0V54.38ZM0 1H54.375V-1H0V1ZM53.375 0V54.38H55.375V0H53.375ZM54.375 53.38H0V55.38H54.375V53.38ZM1 54.38V0H-1V54.38H1Z" fill="white"/>
</svg>
