<svg width="20" height="20" viewBox="0 0 20 20" fill="none" xmlns="http://www.w3.org/2000/svg">
<path d="M16.914 10.8698C16.9495 10.5743 16.9731 10.2669 16.9731 9.94776C16.9731 9.6286 16.9495 9.32125 16.9022 9.02573L18.8999 7.46537C19.0772 7.32352 19.1245 7.06346 19.0181 6.86251L17.1268 3.58812C17.0086 3.37534 16.7603 3.30442 16.5476 3.37534L14.1952 4.32101C13.6987 3.94274 13.1786 3.6354 12.5994 3.39898L12.2448 0.892953C12.2093 0.656536 12.0083 0.491043 11.7719 0.491043H7.98924C7.75282 0.491043 7.56369 0.656536 7.52822 0.892953L7.1736 3.39898C6.59437 3.6354 6.06243 3.95457 5.57778 4.32101L3.22542 3.37534C3.01264 3.2926 2.7644 3.37534 2.64619 3.58812L0.75485 6.86251C0.636641 7.07528 0.683925 7.32352 0.87306 7.46537L2.87079 9.02573C2.82351 9.32125 2.78804 9.64042 2.78804 9.94776C2.78804 10.2551 2.81169 10.5743 2.85897 10.8698L0.861238 12.4301C0.683925 12.572 0.636641 12.8321 0.74303 13.033L2.63437 16.3074C2.75258 16.5202 3.00082 16.5911 3.2136 16.5202L5.56596 15.5745C6.06243 15.9528 6.58255 16.2601 7.16178 16.4965L7.5164 19.0026C7.56369 19.239 7.75282 19.4045 7.98924 19.4045H11.7719C12.0083 19.4045 12.2093 19.239 12.2329 19.0026L12.5876 16.4965C13.1668 16.2601 13.6987 15.941 14.1834 15.5745L16.5357 16.5202C16.7485 16.6029 16.9968 16.5202 17.115 16.3074L19.0063 13.033C19.1245 12.8202 19.0772 12.572 18.8881 12.4301L16.914 10.8698ZM9.88058 13.494C7.93013 13.494 6.33431 11.8982 6.33431 9.94776C6.33431 7.99731 7.93013 6.40149 9.88058 6.40149C11.831 6.40149 13.4269 7.99731 13.4269 9.94776C13.4269 11.8982 11.831 13.494 9.88058 13.494Z" fill="#888888"/>
</svg>
